<svg width="14" height="12" viewBox="0 0 14 12" fill="none" xmlns="http://www.w3.org/2000/svg">
<path d="M9.88025 0.727539C11.5198 0.727681 12.7999 2.00795 12.8002 3.64746C12.8002 4.65993 12.3503 5.62615 11.4359 6.74414C10.5145 7.87061 9.18485 9.07766 7.52478 10.583H7.5238L6.99744 11.0615L6.474 10.5879C4.81464 9.07997 3.48603 7.8721 2.56482 6.74512C1.65021 5.62615 1.19958 4.65998 1.19958 3.64746C1.19983 2.00801 2.48006 0.727783 4.11951 0.727539C5.05144 0.727539 5.95589 1.16465 6.54333 1.85449L7.00037 2.39062L7.45642 1.85449C8.04386 1.16465 8.94832 0.727539 9.88025 0.727539Z" stroke="#595959" stroke-width="1.2"/>
</svg>
